<?xml version="1.0" encoding="UTF-8" standalone="no"?>
<svg
    width="434.54666"
    height="69.545189"
    viewBox="0 0 300 48.012234"
    class="looka-1j8o68f"
    version="1.1"
    id="svg1"
    xmlns="http://www.w3.org/2000/svg"
    xmlns:svg="http://www.w3.org/2000/svg"
>
    <defs id="SvgjsDefs2485" />
    <path
        d="m 71.066242,40.293994 c -1.00234,-0.200468 -1.937964,-0.501266 -2.806679,-0.902202 -1.87112,-0.868728 -3.508222,-2.071523 -4.911433,-3.608423 -1.336368,-1.40334 -2.405616,-3.140643 -3.207487,-5.212167 -0.735015,-2.071523 -1.102581,-4.176405 -1.102581,-6.314772 v -0.200468 -0.300708 c 0,-2.205212 0.367553,-4.343451 1.102581,-6.414975 0.868728,-2.138239 1.937963,-3.842313 3.207615,-5.111965 1.336368,-1.536899 2.940111,-2.7063492 4.811231,-3.5082211 C 69.29544,8.185546 70.26437,7.8514669 71.066242,7.7178558 V 0.2002755 c -2.338771,0.33407905 -4.410295,0.9021122 -6.21457,1.7039455 -2.940112,1.2696646 -5.446057,2.9735973 -7.517581,5.1119649 -2.071523,2.1383676 -3.708625,4.6775431 -4.911433,7.6176541 -1.202807,2.940111 -1.804275,6.014038 -1.804275,9.221526 v 0.200468 0.300708 c 0,3.274331 0.601404,6.348259 1.804275,9.221654 1.069197,2.873395 2.672992,5.379213 4.811231,7.51758 2.13824,2.205212 4.644185,3.909158 7.517581,5.111965 1.804275,0.801872 3.909157,1.369854 6.314772,1.703946 v -7.617782 z m 27.263642,-16.23784 9.7e-5,-0.300708 c 0,-3.274331 -0.601404,-6.348259 -1.804275,-9.221654 C 95.322898,11.593681 93.685796,9.0543773 91.614273,6.916138 89.609593,4.7778987 87.137134,3.1071827 84.196894,1.904375 82.526307,1.1025032 80.488269,0.53452134 78.082654,0.20042946 V 7.8182117 l 1.202808,0.4009359 c 0.601404,0.2004679 1.069196,0.3675524 1.403339,0.5011763 1.87112,0.8687287 3.508222,2.0715231 4.911433,3.6084231 1.336368,1.40334 2.405616,3.140643 3.207487,5.212167 0.735015,2.071523 1.102581,4.176405 1.102581,6.314772 v 0.200468 0.300709 c 0,2.205211 -0.367553,4.343451 -1.102581,6.414974 -0.868728,2.13824 -1.937963,3.842313 -3.207615,5.111965 -1.336368,1.5369 -2.940111,2.70635 -4.811231,3.508221 -0.868729,0.400936 -1.770789,0.701645 -2.706349,0.902113 v 7.617782 c 2.004679,-0.267325 4.009359,-0.835345 6.014038,-1.704074 2.739708,-1.135951 5.245525,-2.839909 7.517581,-5.111965 2.205211,-2.338771 3.842313,-4.877947 4.911432,-7.617654 1.202808,-2.940111 1.804276,-6.014038 1.804276,-9.221526 V 24.056231 Z M 111.86112,0.1000736 h -9.32173 l 18.6432,28.9674584 v 18.944703 h 9.12132 v -19.14485 z m 37.18684,0 h -8.72039 l -11.0258,15.7372154 4.91143,6.615507 z M 160.7753,14.433693 c 1.20281,-2.940111 2.94011,-5.4459288 5.21204,-7.5174524 2.07152,-2.0715236 4.74451,-3.7421112 8.01884,-5.011763 C 177.28051,0.63482588 180.72189,0 184.33031,0 h 11.12601 v 7.6177822 h -11.0258 c -2.60615,0 -4.91144,0.4343195 -6.91612,1.3030096 -2.13823,0.8687287 -3.87567,2.0046792 -5.21203,3.4080192 -1.40334,1.336368 -2.53918,3.073799 -3.40802,5.212039 -0.80188,1.937835 -1.20281,4.109561 -1.20281,6.515176 0,2.405616 0.40093,4.577341 1.20281,6.515176 0.80187,2.00468 1.93783,3.741983 3.40802,5.212167 1.33636,1.336368 3.0738,2.438974 5.21203,3.307689 2.13824,0.801872 4.44366,1.202808 6.91612,1.202808 h 11.0258 v 7.617782 h -11.12601 c -3.74198,0 -7.15,-0.601404 -10.22392,-1.804275 -3.20749,-1.336368 -5.91384,-3.040442 -8.11892,-5.111965 -2.27206,-2.13824 -4.00936,-4.677543 -5.21217,-7.617654 -1.26967,-3.073928 -1.90448,-6.214571 -1.90448,-9.422058 0,-3.408019 0.63479,-6.582021 1.90448,-9.52226 z m 81.38986,33.478084 h 9.02112 L 233.74525,0.0996887 h -9.12133 l 10.1236,28.5671643 z m -36.88598,0 h 8.82059 l 10.42434,-25.459751 -4.3101,-11.426738 z m 94.72082,0 -12.93002,-18.042758 c 1.7373,-0.534547 3.2742,-1.169334 4.6107,-1.904349 1.47018,-0.935483 2.67299,-1.971193 3.60842,-3.107157 1.0692,-1.269665 1.83764,-2.639505 2.30554,-4.109689 0.60141,-1.603744 0.90212,-3.40802 0.90212,-5.412699 0,-2.338772 -0.40094,-4.443653 -1.20281,-6.3147728 -0.80187,-1.8042757 -1.97132,-3.3745331 -3.50822,-4.7110289 -1.47019,-1.2696646 -3.34118,-2.2720557 -5.61323,-3.0070835 -2.33877,-0.73501492 -4.81123,-1.10258013 -7.41738,-1.10258013 H 259.50487 V 7.8174419 h 20.54845 c 3.14064,0 5.57962,0.6682607 7.31692,2.0046795 1.7373,1.3364186 2.60615,3.3410466 2.60615,6.0140386 0,2.472459 -0.86873,4.410295 -2.60615,5.813635 -1.7373,1.470184 -4.14292,2.205211 -7.21685,2.205211 h -20.64852 v 24.056155 h 8.31946 V 31.272 h 10.52453 l 11.72734,16.639161 h 9.9232 v 0 z"
        id="path1"
        style="display: inline; stroke-width: 1.28299"
    />
    <path
        d="M 9.021122,0.1000736 H 0 L 17.441033,47.912162 h 9.121324 l -10.1236,-28.667239 z m 36.88559,0 h -8.82059 L 26.661789,25.559824 30.971882,36.986562 Z"
        id="path3"
        style="
            display: inline;
            fill: #789a55;
            fill-opacity: 1;
            stroke-width: 1.28299;
        "
    />
</svg>
