<?xml version="1.0" encoding="UTF-8"?>
<svg
   width="20"
   height="20"
   viewBox="0 0 50 50"
   class="looka-1j8o68f"
   version="1.1"
   id="svg1"
   xmlns="http://www.w3.org/2000/svg"
   xmlns:svg="http://www.w3.org/2000/svg">
  <defs
     id="SvgjsDefs2485" />
  <g
     id="SvgjsG2486"
     featurekey="nameFeature-0"
     transform="matrix(2.1005393,0,0,2.1005393,-2.5428067,-2.7895159)">
    <path
            stroke-linecap="round"
            stroke-linejoin="round"
            stroke-width="2"
            stroke="#ffffff"
            style="fill:000000;fill-opacity:0"
            d="M3 5a2 2 0 012-2h3.28a1 1 0 01.948.684l1.498 4.493a1 1 0 01-.502 1.21l-2.257 1.13a11.042 11.042 0 005.516 5.516l1.13-2.257a1 1 0 011.21-.502l4.493 1.498a1 1 0 01.684.949V19a2 2 0 01-2 2h-1C9.716 21 3 14.284 3 6V5z"
    />
  </g>
</svg>